<?xml version="1.0" encoding="UTF-8" standalone="no"?>
<!-- Created with Inkscape (http://www.inkscape.org/) -->

<svg
   xmlns:dc="http://purl.org/dc/elements/1.1/"
   xmlns:cc="http://creativecommons.org/ns#"
   xmlns:rdf="http://www.w3.org/1999/02/22-rdf-syntax-ns#"
   xmlns:svg="http://www.w3.org/2000/svg"
   xmlns="http://www.w3.org/2000/svg"
   xmlns:sodipodi="http://sodipodi.sourceforge.net/DTD/sodipodi-0.dtd"
   xmlns:inkscape="http://www.inkscape.org/namespaces/inkscape"
   id="svg2"
   version="1.1"
   inkscape:version="0.48.0 r9654"
   width="344.20938"
   height="354.33072"
   sodipodi:docname="pangagun.png">
  <metadata
     id="metadata8">
    <rdf:RDF>
      <cc:Work
         rdf:about="">
        <dc:format>image/svg+xml</dc:format>
        <dc:type
           rdf:resource="http://purl.org/dc/dcmitype/StillImage" />
        <dc:title></dc:title>
      </cc:Work>
    </rdf:RDF>
  </metadata>
  <defs
     id="defs6" />
  <sodipodi:namedview
     pagecolor="#ffffff"
     bordercolor="#666666"
     borderopacity="1"
     objecttolerance="10"
     gridtolerance="10"
     guidetolerance="10"
     inkscape:pageopacity="0"
     inkscape:pageshadow="2"
     inkscape:window-width="1078"
     inkscape:window-height="712"
     id="namedview4"
     showgrid="false"
     fit-margin-top="0"
     fit-margin-left="0"
     fit-margin-right="0"
     fit-margin-bottom="0"
     inkscape:zoom="0.62616822"
     inkscape:cx="156.07638"
     inkscape:cy="122.75039"
     inkscape:window-x="0"
     inkscape:window-y="0"
     inkscape:window-maximized="0"
     inkscape:current-layer="svg2" />
  <path
     style="fill:#000000"
     d="m 93.875821,353.72969 c -1.816662,-0.45129 -3.634843,-1.15236 -4.040405,-1.55792 -0.405562,-0.40556 -1.191923,-0.56297 -1.747463,-0.34979 -0.555539,0.21318 -1.488767,-0.18918 -2.073832,-0.89414 -0.585064,-0.70496 -1.905368,-1.28175 -2.934003,-1.28175 -1.028635,0 -2.334841,-0.5598 -2.90268,-1.244 -0.567838,-0.68421 -1.935491,-1.24401 -3.03923,-1.24401 -1.103739,0 -2.457549,-0.36022 -3.008466,-0.80049 -6.645722,-5.311 -7.22152,-6.03296 -7.20191,-9.03013 0.01088,-1.66326 0.360443,-4.49305 0.776803,-6.28844 0.598364,-2.5802 0.49659,-3.45476 -0.485614,-4.17297 -0.828803,-0.60603 -1.304266,-2.60771 -1.427703,-6.01057 -0.124864,-3.44218 -0.646277,-5.61156 -1.602788,-6.66849 -2.242297,-2.47771 -1.392606,-16.39609 1.404667,-23.00916 1.15765,-2.73681 2.113675,-5.42556 2.124502,-5.975 0.01082,-0.54943 0.907841,-1.88712 1.993366,-2.97265 1.438174,-1.43818 1.986939,-2.93433 2.022545,-5.51428 0.02688,-1.94734 0.602212,-4.15506 1.278527,-4.90605 0.676314,-0.75099 1.723044,-2.95155 2.326065,-4.89012 0.603022,-1.93858 1.477565,-3.52469 1.94343,-3.52469 0.465865,0 2.239652,-0.7464 3.94175,-1.65867 1.702106,-0.91227 3.775308,-1.65867 4.607133,-1.65867 1.246037,0 7.758679,4.72729 9.274989,6.73238 0.228068,0.30159 2.094075,1.03826 4.146685,1.63704 2.052611,0.5988 5.452701,2.13285 7.555761,3.40901 2.10306,1.27616 4.43692,2.3203 5.18636,2.3203 0.74944,0 2.75524,0.7464 4.45735,1.65867 1.7021,0.91227 3.75336,1.65867 4.55834,1.65867 0.805,0 1.46363,0.4687 1.46363,1.04156 0,0.57286 1.0263,1.51108 2.28067,2.08495 4.17008,1.9078 8.58902,6.86776 11.09525,12.45367 2.14042,4.77059 2.3865,6.06831 1.89566,9.99686 -0.31023,2.48302 -1.06483,5.47982 -1.67687,6.65954 -1.00324,1.93374 -0.94486,2.23483 0.59289,3.05781 1.98861,1.06427 6.47587,0.40187 13.18052,-1.94568 4.29954,-1.50544 9.78534,-1.93159 9.33004,-0.72478 -0.11404,0.30225 -0.20734,0.89284 -0.20734,1.31242 0,1.14442 -10.93254,3.43773 -20.31875,4.26225 -7.20953,0.63332 -8.45595,0.9703 -9.53738,2.57852 -0.6842,1.01749 -2.50751,2.98843 -4.05179,4.37988 -4.98626,4.49276 -5.9838,9.5771 -2.31991,11.8244 2.2486,1.37923 4.78754,6.70657 4.23861,8.89369 -0.71064,2.83141 -4.35235,5.79352 -9.23754,7.51367 -2.18466,0.76925 -4.71851,1.80619 -5.63078,2.30433 -2.22232,1.21349 -14.106921,1.56735 -18.231089,0.54283 z M 218.98715,344.2398 c -2.78801,-0.92084 -5.68683,-2.18694 -6.44183,-2.81352 -0.75499,-0.62659 -1.61029,-0.90168 -1.90066,-0.61133 -0.29036,0.29037 -0.94733,-0.30955 -1.45994,-1.33315 -0.5126,-1.02361 -1.66597,-1.87499 -2.56303,-1.89195 -0.89706,-0.017 -2.00378,-0.26055 -2.45937,-0.54125 -0.65305,-0.40239 -7.12982,-1.66709 -9.60386,-1.87533 -1.0206,-0.0859 -6.53605,-6.52013 -7.03949,-8.21215 -0.29138,-0.97926 -1.03577,-2.58425 -1.65422,-3.56664 -0.97103,-1.54246 -0.91257,-2.22139 0.42854,-4.97602 1.0648,-2.18709 1.29263,-3.50432 0.72475,-4.1902 -0.45555,-0.55018 -0.6251,-1.32907 -0.37678,-1.73085 1.00871,-1.63212 -2.04987,-4.31817 -4.91706,-4.31817 -1.87847,0 -2.85566,-0.39259 -2.85566,-1.14728 0,-1.15158 2.40453,-2.13761 5.26436,-2.15875 2.03211,-0.015 15.70033,-6.66358 16.54695,-8.04885 0.36476,-0.59684 1.20582,-1.08517 1.86901,-1.08517 2.27631,0 6.6218,-2.90789 11.1506,-7.46169 2.49369,-2.50746 5.00969,-4.44977 5.59112,-4.31625 0.58143,0.13352 1.42668,-0.61394 1.87834,-1.66102 0.45164,-1.04708 1.16835,-2.46358 1.59266,-3.14778 1.26105,-2.03344 1.98733,-4.4651 1.79582,-6.0127 -0.0988,-0.79823 0.17597,-1.45134 0.61055,-1.45134 0.43458,0 1.58151,-1.68357 2.54875,-3.74128 1.89591,-4.03339 8.54404,-11.09759 9.04097,-9.60681 0.16648,0.49942 1.43062,0.90804 2.8092,0.90804 2.56293,0 6.6166,2.81637 7.22377,5.01886 0.18211,0.66065 0.48745,2.32077 0.67851,3.68918 0.19106,1.3684 0.67726,3.23441 1.08044,4.14668 1.49752,3.38838 3.4673,18.57203 3.71186,28.61213 0.13888,5.70169 0.51021,11.11311 0.82517,12.02539 1.22731,3.55486 2.40736,5.39069 3.46507,5.39069 0.60713,0 1.10387,0.41312 1.10387,0.91806 0,0.50494 -0.55981,0.70326 -1.24401,0.4407 -1.78793,-0.68609 -1.53389,0.83215 0.36135,2.15963 2.03848,1.4278 4.17226,7.49313 4.18794,11.90426 0.0127,3.56356 -1.99133,8.57075 -3.6038,9.00448 -3.7318,1.00381 -15.77823,2.4572 -23.75782,2.86635 -8.20831,0.42088 -10.25189,0.25515 -14.61207,-1.18497 z M 80.048153,246.39262 c -0.265214,-0.45558 -0.745208,-2.28367 -1.066659,-4.06245 -0.676038,-3.74089 2.599008,-17.08463 4.193201,-17.08463 1.240299,0 2.050155,-2.62662 2.557087,-8.29337 0.224427,-2.50874 0.980608,-5.86756 1.680411,-7.46403 1.105771,-2.52264 1.809381,-7.03539 2.004259,-12.85472 0.123007,-3.67322 -0.499187,-8.56929 -1.046043,-8.23132 -0.320075,0.19781 -0.829486,-1.10549 -1.132037,-2.89624 -0.302542,-1.79074 -1.082019,-3.46003 -1.732161,-3.70951 -0.650151,-0.24949 -1.187802,-1.30502 -1.194785,-2.34565 -0.0097,-1.44372 -0.189536,-1.61264 -0.759009,-0.71288 -0.554453,0.87603 -0.972116,0.34305 -1.624729,-2.07335 -0.48313,-1.78887 -1.670724,-3.74485 -2.639099,-4.34663 -0.968374,-0.60177 -1.54354,-1.31127 -1.278143,-1.57666 0.763502,-0.76351 -2.208697,-2.66444 -4.211424,-2.69352 -0.999385,-0.0145 -2.051477,-0.40566 -2.337983,-0.86923 -0.286506,-0.46358 -0.821382,-0.65717 -1.188614,-0.43021 -0.367233,0.22696 -1.56648,-0.42005 -2.664994,-1.43782 -1.098515,-1.01775 -4.224379,-2.54381 -6.946366,-3.39121 -2.721988,-0.84742 -5.50887,-2.0082 -6.193073,-2.57952 -0.684203,-0.57131 -3.950573,-2.60064 -7.258599,-4.50962 -5.398647,-3.11543 -15.962837,-12.21445 -15.962837,-13.74893 0,-0.55419 -4.711982,-6.93163 -5.831015,-7.89198 -0.26575,-0.22807 -0.957536,-1.58837 -1.5373,-3.0229 -0.579765,-1.43453 -1.689851,-3.30054 -2.466856,-4.14669 -0.777007,-0.84615 -1.872132,-3.08978 -2.433613,-4.98584 -0.561481,-1.89606 -1.987143,-4.32187 -3.168139,-5.39069 -4.78228,-4.32803 -5.296502,-4.87902 -5.296502,-5.67532 0,-1.71074 1.747707,-0.69144 6.811688,3.97271 7.093958,6.53385 9.135859,7.72438 12.197865,7.11198 3.196494,-0.6393 3.66755,-1.24317 6.693097,-8.5802 3.268181,-7.92542 3.269808,-11.40371 0.0068,-14.529878 -3.155991,-3.02363 -3.232863,-5.19587 -0.207334,-5.85882 1.254372,-0.27486 2.761932,-0.64912 3.350134,-0.83169 1.139762,-0.35377 3.682244,0.86169 6.394575,3.05699 1.878986,1.52081 5.716645,2.61646 6.482395,1.85071 0.279736,-0.27974 0.139769,-1.19781 -0.311038,-2.04014 -0.98158,-1.8341 2.179869,-7.36255 4.195356,-7.33646 0.933078,0.0121 0.833108,0.32669 -0.399972,1.2587 -2.578491,1.94892 -2.115978,7.4526 0.83973,9.99236 2.248365,1.93196 3.467848,2.321018 6.366475,2.031128 0.778549,-0.0779 1.894626,0.62556 2.480171,1.56317 1.146887,1.83646 6.470998,2.48274 6.470998,0.7855 0,-0.5664 0.79583,-0.7195 2.073343,-0.39887 1.140338,0.28621 2.073342,0.16602 2.073342,-0.26708 0,-0.4331 0.839704,-0.90671 1.866009,-1.05247 1.199185,-0.17031 1.96071,-0.931828 2.131023,-2.131018 0.312021,-2.19697 -1.319884,-2.51973 -2.096559,-0.41467 -0.543959,1.47432 -1.8302,2.659608 -2.911115,2.682648 -0.327786,0.007 -0.395644,-0.50936 -0.150796,-1.147418 0.244849,-0.63807 0.04653,-1.40649 -0.440696,-1.70763 -0.487232,-0.30112 -0.885877,-1.14747 -0.885877,-1.88077 0,-0.73331 0.235671,-1.09762 0.523713,-0.80958 0.288042,0.28805 1.164473,0.18079 1.947625,-0.23834 1.675799,-0.89686 6.317122,0.20513 6.061761,1.43925 -0.09621,0.46501 0.930093,1.06647 2.280676,1.33658 1.350592,0.27012 2.455617,0.90415 2.455617,1.40895 0,1.595068 6.05528,8.383308 9.312002,10.439188 2.24019,1.41417 3.12805,2.55592 3.12805,4.0225 0,5.10314 12.989031,13.69265 16.060821,10.62086 0.31893,-0.31893 2.29903,-0.47414 4.40021,-0.34493 2.10118,0.12921 4.05118,-0.13859 4.33332,-0.5951 0.28215,-0.45653 2.58808,-0.98365 5.1243,-1.17141 2.53622,-0.18775 4.9592,-0.54447 5.38441,-0.7927 0.4252,-0.24823 2.58194,-0.71376 4.79274,-1.03453 3.34077,-0.48469 3.95302,-0.83795 3.62516,-2.09167 -0.39411,-1.50709 2.22902,-3.34183 4.77781,-3.34183 0.63168,0 1.97028,-1.15409 2.97469,-2.56463 1.38832,-1.94973 1.99536,-2.29771 2.53178,-1.45134 0.38808,0.61231 0.71132,0.71344 0.7183,0.22473 0.0163,-1.14375 8.47201,-9.82036 9.86328,-10.12102 1.70614,-0.3687 6.73616,-5.628698 6.73616,-7.044138 0,-0.71468 0.9217,-3.13448 2.04822,-5.37734 1.12653,-2.24285 2.62402,-6.28543 3.32776,-8.98351 1.18261,-4.53399 1.1735,-4.98339 -0.12019,-5.93261 -1.12354,-0.82437 -1.22258,-1.3971 -0.50198,-2.90268 0.49376,-1.03161 1.35405,-3.64837 1.91176,-5.81501 0.55772,-2.16664 1.30821,-3.93935 1.66775,-3.93935 1.73658,0 3.2774,1.15098 3.2774,2.4482 0,0.79278 0.75845,2.1278 1.68545,2.96672 0.92699,0.83892 2.46112,2.78036 3.40915,4.31432 1.09195,1.76681 2.59699,2.96366 4.10645,3.26555 1.31051,0.2621 2.19358,0.78263 1.96238,1.15672 -0.72262,1.16921 4.55793,5.94386 5.97307,5.40083 0.9433,-0.36198 1.15297,-0.12993 0.77426,0.85696 -0.40058,1.04389 -0.13723,1.25344 1.15167,0.91638 1.09014,-0.28508 1.67099,-0.0315 1.67099,0.72939 0,1.74669 1.47242,1.40536 2.53962,-0.58873 1.0376,-1.93878 -0.19411,-7.91454 -2.31472,-11.23017 -0.7197,-1.12526 -0.8388,-1.97806 -0.32093,-2.29812 0.45288,-0.2799 1.15645,0.0862 1.56346,0.81347 0.40703,0.7273 1.61421,1.76146 2.68263,2.29812 1.68872,0.84823 3.70631,3.42735 5.46692,6.98844 0.28189,0.57017 0.9391,1.03774 1.46047,1.03905 0.52136,0.001 1.67137,1.08222 2.55557,2.40201 0.88419,1.3198 2.08751,2.21548 2.67403,1.99041 0.58652,-0.22507 1.61076,0.13513 2.27607,0.80044 1.38723,1.38723 7.9916,2.65924 8.7163,1.67876 0.26586,-0.35968 2.90918,-0.70005 5.87406,-0.75637 2.96488,-0.0563 6.5103,-0.57987 7.87871,-1.16344 1.3684,-0.58357 3.20512,-1.19802 4.08159,-1.36544 0.87647,-0.16743 1.99608,-0.62709 2.48802,-1.02148 0.49192,-0.39439 2.20062,-0.98293 3.7971,-1.30787 1.59647,-0.32494 4.09557,-1.27664 5.55356,-2.1149 1.45798,-0.83826 3.76448,-1.49244 5.12554,-1.45374 1.36105,0.0387 3.61642,-0.40258 5.01192,-0.98061 2.05308,-0.85042 2.45977,-1.4281 2.13116,-3.02725 -0.22336,-1.08695 -0.59306,-2.88237 -0.82157,-3.98982 -0.34934,-1.69313 0.24455,-2.44123 3.73202,-4.70103 2.28111,-1.47811 4.14748,-2.92745 4.14748,-3.22076 0,-1.26103 3.58665,-4.23751 4.62572,-3.83878 1.40139,0.53777 5.7166,-1.21816 11.03361,-4.48975 2.31945,-1.42717 5.16612,-2.46956 6.74418,-2.46956 1.50184,0 5.00598,-1.06471 7.78697,-2.36603 2.78099,-1.30131 6.16389,-2.63502 7.51755,-2.96379 3.97032,-0.96428 11.22249,-4.6586 11.22697,-5.71912 0.008,-1.91892 3.77179,-5.54263 6.21591,-5.98472 1.85563,-0.33564 3.12039,0.0659 4.97602,1.57962 l 2.48801,2.02964 -2.25612,1.02877 c -1.81184,0.82619 -2.50986,0.81818 -3.54472,-0.0407 -0.70873,-0.5882 -1.39254,-0.92297 -1.51958,-0.74394 -0.12703,0.17904 -0.845,1.30907 -1.59549,2.51118 -1.52088,2.4361 -6.15802,5.25149 -13.53875,8.2199 -2.70241,1.08686 -7.66777,3.38875 -11.03415,5.11531 -3.36638,1.72657 -7.29166,3.13921 -8.72285,3.13921 -1.4312,0 -3.97521,0.93301 -5.65337,2.07335 -1.67816,1.14033 -3.29754,2.07334 -3.59863,2.07334 -0.30109,0 -2.91865,1.13168 -5.81681,2.51484 -4.66005,2.22403 -5.33174,2.84721 -5.8086,5.38912 -0.30475,1.6245 -0.0656,4.47833 0.55004,6.56334 1.00829,3.41488 1.33872,3.73008 4.44601,4.24104 5.28591,0.86921 8.74747,2.57699 8.74747,4.31561 0,0.85021 -1.10554,2.60501 -2.45675,3.89954 -2.40083,2.30015 -2.45652,2.54079 -2.44699,10.57289 0.0115,9.698958 0.90047,12.483568 3.65134,11.437688 1.28309,-0.48783 2.21956,-0.33927 3.04129,0.48245 1.03021,1.03021 1.64357,0.96689 4.63518,-0.47849 1.89632,-0.9162 3.79915,-1.66582 4.22852,-1.66582 0.42937,0 0.96019,-0.46784 1.17961,-1.03964 0.45182,-1.17742 6.28961,-3.5071 7.00231,-2.7944 0.25571,0.25571 -0.23873,1.44449 -1.09876,2.64175 -0.86002,1.19725 -2.54947,3.87659 -3.75432,5.95407 -1.20486,2.07749 -4.37707,6.00033 -7.04937,8.71743 -3.99013,4.05703 -6.78611,5.87469 -15.6401,10.16763 -12.95919,6.28337 -25.61236,12.01465 -26.52525,12.01465 -1.97282,0 -11.5993,7.21904 -16.72304,12.54086 -15.33644,15.92933 -15.32271,15.9056 -15.36166,26.56215 -0.0172,4.72113 0.10086,9.09702 0.26249,9.7242 0.62683,2.43238 -1.46224,1.58929 -3.36691,-1.35879 -2.9809,-4.61388 -7.00137,-9.28701 -8.00456,-9.30397 -0.48617,-0.008 -1.68013,-1.41446 -2.65324,-3.12496 -0.9731,-1.71051 -2.90676,-3.85642 -4.29701,-4.76869 -1.39026,-0.91227 -2.5288,-1.93858 -2.53011,-2.28068 -0.002,-0.3421 -0.6917,-0.622 -1.53417,-0.622 -0.84247,0 -2.37356,-0.73008 -3.4024,-1.62239 -1.46008,-1.26633 -2.61956,-1.51763 -5.28308,-1.14508 -3.50098,0.48969 -7.19882,2.38626 -7.19882,3.69219 0,0.40367 -0.54334,0.73395 -1.20742,0.73395 -0.66409,0 -2.73316,2.61241 -4.59794,5.80536 -3.18963,5.4614 -3.56502,5.80536 -6.33592,5.80536 -1.73071,0 -4.01837,-0.76954 -5.54715,-1.86601 -1.43096,-1.0263 -4.73901,-2.46223 -7.35122,-3.19096 -3.95159,-1.10237 -5.13823,-1.14741 -7.06365,-0.26807 -1.2728,0.58129 -5.0199,2.08685 -8.32688,3.3457 -3.30698,1.25885 -6.01269,2.61753 -6.01269,3.0193 0,0.40177 -0.77315,0.4851 -1.7181,0.18518 -1.08467,-0.34426 -2.28582,-0.0315 -3.25792,0.8482 -0.98958,0.89556 -2.16796,1.19414 -3.29771,0.83557 -1.02115,-0.3241 -2.30761,-0.10172 -3.06949,0.53058 -0.72138,0.59869 -2.84938,1.15971 -4.7289,1.24673 -5.17005,0.23935 -15.27265,1.84819 -16.90239,2.69172 -0.79363,0.41078 -4.14998,1.75129 -7.45855,2.97891 -6.628537,2.45948 -6.395932,2.09923 -7.23542,11.20591 -0.841587,9.12935 -2.082117,13.21804 -5.114804,16.85799 -1.074389,1.28953 -2.171279,3.34214 -2.437521,4.56136 -0.26625,1.21921 -1.170103,4.64257 -2.008563,7.60745 -0.838459,2.96488 -1.847315,6.88304 -2.241888,8.70702 -0.394582,1.82399 -0.934414,2.94359 -1.199628,2.48801 z m 161.151607,-10.3657 c 0,-1.14033 0.18824,-1.60684 0.41831,-1.03667 0.23007,0.57017 0.23007,1.50318 0,2.07334 -0.23007,0.57017 -0.41831,0.10367 -0.41831,-1.03667 z m -2.38291,-5.03721 c -0.11823,-1.68523 0.16214,-2.43406 0.82934,-2.21506 1.4254,0.46784 1.82331,4.7647 0.44104,4.76261 -0.62645,-8.3e-4 -1.16788,-1.0867 -1.27038,-2.54755 z m -1.22046,-5.07958 c -1.63307,-2.53203 -2.35161,-5.53118 -1.45753,-6.08374 1.06779,-0.65994 4.39736,6.28348 3.46176,7.21908 -0.47811,0.47811 -1.2431,0.0448 -2.00423,-1.13534 z m -3.99161,-9.37263 c 0,-0.6842 0.3732,-1.244 0.82934,-1.244 0.45614,0 0.82934,0.5598 0.82934,1.244 0,0.68421 -0.3732,1.24401 -0.82934,1.24401 -0.45614,0 -0.82934,-0.5598 -0.82934,-1.24401 z m -2.32214,-3.06854 c -1.15421,-1.15422 -1.34067,-3.98082 -0.26259,-3.98082 0.40293,0 0.96297,0.6531 1.24453,1.45134 0.28156,0.79824 0.7294,1.91784 0.99518,2.48801 0.61538,1.32012 -0.67148,1.34711 -1.97712,0.0415 z M 108.3749,117.66757 c -1.61183,-0.5993 -6.53032,-5.86913 -5.98593,-6.41352 0.22931,-0.22931 -0.0551,-0.98575 -0.63213,-1.68097 -0.87803,-1.05796 -0.78912,-1.26405 0.54529,-1.26405 0.87689,0 1.96586,-0.37151 2.41992,-0.82558 0.45407,-0.45407 3.67829,-1.06671 7.16493,-1.36144 l 6.33936,-0.53588 1.12604,2.75963 c 1.09654,2.6873 1.04895,2.82852 -1.81571,5.38844 -4.58527,4.09751 -6.5044,4.92144 -9.16177,3.93337 z M 13.270108,104.75593 c -1.044472,-1.69 -1.387747,-19.564298 -0.398621,-20.756118 0.679125,-0.81829 0.368726,-2.10757 -1.230802,-5.11228 l -2.138956,-4.01801 1.429443,-4.72113 c 1.716594,-5.66953 1.548858,-6.07725 -5.2627349,-12.79242 -5.49996517,-5.4221 -7.9124317,-9.83642 -3.0355787,-5.55449 1.5168279,1.33179 4.6906056,4.55564 7.0528386,7.1641 3.981592,4.39661 4.253821,4.96288 3.730993,7.76096 -0.310187,1.66008 -0.927734,3.45862 -1.372328,3.99677 -1.270152,1.53742 4.771059,11.42822 10.70149,17.5207 5.085203,5.22416 6.038153,6.99878 4.326362,8.05672 -0.471346,0.29131 -0.751247,1.89944 -0.622003,3.57363 0.225821,2.925188 0.122002,3.054698 -2.660441,3.318778 -1.592487,0.15114 -3.085294,0.55993 -3.317348,0.90843 -0.761308,1.14331 -6.573747,1.6714 -7.202314,0.65436 z m 288.589882,-3.04615 c -0.23733,-0.90756 -1.63336,-2.022178 -3.16637,-2.528118 -1.50804,-0.49769 -2.97464,-1.51145 -3.25912,-2.25278 -0.74397,-1.93876 0.37609,-8.71225 1.6898,-10.21896 1.53118,-1.75612 2.12684,-10.13301 0.9074,-12.76106 -0.61384,-1.32292 -1.6646,-2.12015 -2.7997,-2.12419 -2.77012,-0.01 -3.26384,-1.73067 -1.01024,-3.52116 1.09888,-0.87306 2.74437,-2.21213 3.65664,-2.9757 0.91227,-0.76357 2.59168,-1.51207 3.73202,-1.66332 1.14033,-0.15126 2.89991,-0.80436 3.91017,-1.45134 1.01026,-0.64698 2.27559,-1.17633 2.81184,-1.17633 0.53625,0 2.6953,-0.81134 4.79787,-1.80298 12.81004,-6.04162 15.84824,-7.73343 15.84824,-8.82503 0,-0.98101 0.87214,-1.10858 4.59101,-0.6715 4.19144,0.49263 4.75911,0.35821 6.52246,-1.54449 2.40637,-2.59651 2.83123,-2.59716 3.81646,-0.006 0.6911,1.81774 0.35067,2.53339 -2.71587,5.70912 -1.92831,1.99698 -5.46533,4.46653 -7.86004,5.48791 -2.39471,1.02136 -4.35402,2.18427 -4.35402,2.58423 0,0.39997 -0.50531,0.72721 -1.12291,0.72721 -0.61759,0 -2.1198,0.9239 -3.33823,2.0531 -1.64165,1.52142 -2.10253,2.59525 -1.77977,4.14668 0.23955,1.15148 0.62484,3.009 0.8562,4.12782 0.52809,2.5538 -2.01402,5.08248 -9.81302,9.76121 -4.80562,2.88296 -5.57715,3.65762 -5.10931,5.13018 0.30306,0.95396 0.88467,3.78707 1.29245,6.29582 0.71851,4.42041 0.66457,4.63182 -1.7458,6.842028 -2.92899,2.68576 -5.75143,2.97762 -6.35816,0.65745 z m -234.951943,0.0977 c 0,-0.75706 3.657985,-2.621138 5.143582,-2.621138 0.505368,0 0.243364,0.7464 -0.582229,1.658668 -1.490955,1.64749 -4.561353,2.29535 -4.561353,0.96247 z m 66.814103,-7.709718 c -2.30639,-1.39648 -8.27588,-7.64168 -8.06948,-8.44217 0.0959,-0.37181 -0.53913,-1.67801 -1.41113,-2.90268 -0.88603,-1.24437 -1.47508,-3.23178 -1.33528,-4.50511 0.93741,-8.53792 2.06368,-10.85856 5.11594,-10.54127 2.90282,0.30175 4.49611,-0.0435 3.9888,-0.86433 -0.86228,-1.3952 0.046,-0.94105 3.31735,1.65867 1.72192,1.36841 3.42393,2.48801 3.78226,2.48801 1.03649,0 5.75511,5.00081 5.75511,6.09929 0,0.54762 0.58759,1.83457 1.30575,2.85988 2.39209,3.4152 0.67108,10.97006 -3.0248,13.27818 -2.35508,1.47077 -7.62931,1.9585 -9.42452,0.87153 z m -38.879396,-4.24148 c -1.103209,-1.48244 -2.218966,-4.09867 -2.479452,-5.81384 -0.260487,-1.71516 -1.056261,-3.70113 -1.768387,-4.41325 -1.743059,-1.74306 -1.629747,-2.61688 0.423882,-3.26867 0.997319,-0.31654 1.537201,-1.01834 1.286327,-1.67211 -0.24604,-0.64117 0.264152,-1.34768 1.184027,-1.63964 0.888992,-0.28215 1.616353,-0.85679 1.616353,-1.27698 0,-3.30426 6.681476,-5.54636 7.893876,-2.64894 1.40434,3.35615 1.82513,8.02041 0.98138,10.87836 -0.48924,1.65717 -0.92331,3.19964 -0.9646,3.42771 -0.0413,0.22806 -0.69319,1.34767 -1.44868,2.48801 -0.7555,1.14034 -1.625951,3.09964 -1.934371,4.35402 -0.74224,3.0189 -2.33794,2.88077 -4.790355,-0.41467 z m -17.169414,-8.1531 c -1.254207,-5.22812 -0.125192,-6.84022 2.01163,-2.87238 0.979662,1.81912 1.336219,3.59845 0.994176,4.96125 -0.823499,3.28107 -1.896455,2.53542 -3.005806,-2.08887 z m -55.998261,0.84122 c -0.300662,-0.48648 -0.347517,-1.08365 -0.104122,-1.32705 0.594065,-0.59406 2.211566,0.45267 2.211566,1.43118 0,1.05987 -1.431777,0.98912 -2.107444,-0.10413 z m 34.002817,-0.82933 c -0.300662,-0.48649 -0.347517,-1.08366 -0.104122,-1.32706 0.594065,-0.59406 2.211566,0.45268 2.211566,1.43118 0,1.05987 -1.431777,0.98913 -2.107444,-0.10412 z m -39.750665,-5.14451 c -1.461778,-2.87387 -1.482369,-3.23416 -0.254989,-4.46154 0.898633,-0.89864 2.036071,-1.1593 3.478736,-0.79721 2.53706,0.63676 2.789568,1.84825 0.53441,2.564 -1.056638,0.33537 -1.705061,1.42237 -1.888544,3.16591 l -0.279421,2.65518 -1.590192,-3.12634 z m 37.502572,0.91623 c -2.514722,-1.83185 -2.953681,-3.18058 -1.035154,-3.18058 0.684203,0 1.244006,0.34654 1.244006,0.7701 0,0.42355 0.604231,1.37433 1.342736,2.11283 2.006976,2.00698 1.047592,2.19102 -1.551588,0.29765 z m -22.414437,-6.9126 c -3.041468,-2.50874 -5.856064,-4.56135 -6.254658,-4.56135 -0.398594,0 -1.061648,-0.71224 -1.473454,-1.58275 -1.049122,-2.21774 -7.682617,-9.23307 -9.783729,-10.3469 -3.977883,-2.10873 -9.5417061,-6.80231 -9.2072176,-7.7671 0.1976741,-0.57017 -0.1886821,-1.03667 -0.8585694,-1.03667 -1.8475153,0 -1.4558143,-1.47142 0.5622053,-2.11191 1.2150778,-0.38565 2.0179577,-0.14013 2.5292207,0.77345 0.411971,0.73615 1.225242,1.33846 1.807269,1.33846 0.582027,0 1.934743,0.933 3.006035,2.07334 1.071292,1.14034 2.442553,2.07334 3.047245,2.07334 0.604692,0 1.09944,0.39795 1.09944,0.88433 0,0.48638 2.308267,3.00549 5.129482,5.59802 9.476447,8.70831 18.897685,17.97786 18.909537,18.60509 0.0339,1.79415 -3.601185,0.11199 -8.512806,-3.93935 z m 48.786515,-5.40695 c 1.556193,-7.52101 2.34413,-9.6551 4.450613,-12.05425 1.407799,-1.6034 2.55964,-3.27548 2.55964,-3.71575 0,-0.44026 0.373202,-0.80048 0.829337,-0.80048 1.560215,0 0.831303,3.49025 -1.244005,5.95661 -1.140338,1.35521 -2.073343,3.15977 -2.073343,4.01012 0,0.85036 -0.348628,1.76157 -0.774733,2.02491 -0.426097,0.26335 -0.582244,1.68488 -0.346978,3.15896 0.507786,3.18165 -2.37688,10.55885 -4.128761,10.55885 -0.953363,0 -0.822232,-1.64563 0.72823,-9.13897 z m -31.553917,6.65096 c 2.279918,-0.97972 3.589343,-0.97972 2.073343,0 -0.684203,0.44216 -1.803808,0.78342 -2.488011,0.75835 -0.82026,-0.0301 -0.679012,-0.28838 0.414668,-0.75835 z m -11.234559,-7.86721 c -2.9437,-2.50243 -5.592153,-4.55504 -5.885453,-4.56136 -0.2933,-0.006 -0.753949,-0.58656 -1.023664,-1.28942 -0.607355,-1.58275 0.401076,-1.01705 5.23489,2.93661 6.739813,5.5126 8.758968,7.4155 7.894254,7.43972 -0.477316,0.0134 -3.276328,-2.02313 -6.220027,-4.52555 z m 160.320235,-6.41881 c -0.46531,-0.58119 -1.11715,-1.98972 -1.44855,-3.13006 -0.33138,-1.14034 -1.06353,-2.81974 -1.627,-3.73201 -0.56346,-0.91228 -1.25241,-2.96488 -1.531,-4.56136 l -0.50654,-2.90268 1.59028,3.31735 c 4.52103,9.43098 6.02672,14.13626 3.52281,11.00876 z M 22.953186,51.499442 c -0.567838,-0.6842 -1.453238,-1.24452 -1.967556,-1.24515 -0.514318,-6.3e-4 -2.614531,-1.5248 -4.66714,-3.38703 -2.052609,-1.86223 -4.70997,-3.74738 -5.905247,-4.18921 -1.409743,-0.52111 -2.438768,-1.7349 -2.929074,-3.455 -0.584793,-2.05159 -1.277127,-2.71213 -3.0592938,-2.91884 -2.6733248,-0.31006 -2.5699466,-1.9366 0.1494623,-2.35161 2.5272005,-0.38568 5.9374815,2.00392 5.9447355,4.1655 0.0039,1.15026 1.736893,3.19673 4.946335,5.84094 5.14609,4.23979 9.796291,8.78441 8.988493,8.78441 -0.257556,0 -0.932877,-0.5598 -1.500715,-1.24401 z M 93.34857,31.802692 c -0.05407,-0.57017 -0.04735,-1.4612 0.01493,-1.98007 0.06228,-0.51887 -0.295452,-2.01167 -0.79492,-3.317348 -0.49946,-1.305672 -0.97268,-6.159737 -1.051608,-10.786809 -0.123388,-7.2342124 0.07787,-8.6575484 1.436387,-10.1593784 0.868938,-0.960586 2.290471,-1.746519 3.15896,-1.746519 0.8685,0 1.34844,-0.373202 1.06653,-0.829337 -0.923,-1.493445 0.95134,-0.868665 2.48801,0.829337 0.825601,0.91227 1.937991,1.658674 2.471981,1.658674 1.3531,0 4.26012,3.366103 4.7849,5.5405264 0.29564,1.225016 -0.20257,2.408854 -1.5442,3.669248 -1.08937,1.023405 -1.98066,2.37109 -1.98066,2.994854 0,0.623765 -0.74641,1.935288 -1.65868,2.914496 -0.91227,0.979207 -1.65867,2.650427 -1.65867,3.713819 0,4.112487 -6.380374,11.218317 -6.732959,7.498507 z m 63.68999,-1.79286 c -5.76976,-3.546469 -7.57514,-8.570498 -4.20287,-11.695816 2.57181,-2.383469 2.51712,-4.837409 -0.14671,-6.582818 -1.17084,-0.767162 -2.85025,-2.1162894 -3.73202,-2.9980614 -0.88178,-0.881772 -2.34963,-1.603221 -3.2619,-1.603221 -0.91227,0 -1.65867,-0.373202 -1.65867,-0.829337 0,-1.077506 1.60561,-1.05066 4.85227,0.08113 1.43647,0.500757 2.61176,1.47369 2.61176,2.162073 0,0.771811 0.47688,1.068609 1.24401,0.774236 0.7814,-0.299854 1.244,0.0085 1.244,0.8293374 0,0.850818 0.45768,1.131078 1.31184,0.803308 0.72151,-0.276869 1.84111,-0.503399 2.48801,-0.503399 0.64689,0 1.17617,-0.5598024 1.17617,-1.2440054 0,-1.22553 0.8711,-1.568914 3.31735,-1.307686 1.10578,0.118083 1.10578,0.0351 0,-0.746835 -1.08075,-0.764236 -1.03274,-1.040864 0.36585,-2.107924 0.88541,-0.675535 2.26289,-1.228245 3.06106,-1.228245 0.79817,0 1.6757,-0.363215 1.95006,-0.807144 1.06462,-1.722588 6.39703,-3.64191701 7.78334,-2.80150901 3.08971,1.87304501 4.66928,6.99176701 4.69649,15.21937041 0.0231,6.991719 0.2499,8.180995 2.01443,10.563847 2.62717,3.547779 1.8608,4.074679 -1.65611,1.138629 -1.86977,-1.560946 -3.25832,-2.14645 -4.09477,-1.726617 -0.69609,0.349387 -2.86892,1.297787 -4.82849,2.107567 -1.95957,0.80977 -4.34919,2.15429 -5.31025,2.98781 -2.34221,2.03139 -5.39214,1.87114 -9.22485,-0.48469 z"
     id="path2987"
     inkscape:connector-curvature="0" />
</svg>
